<svg xmlns="http://www.w3.org/2000/svg" width="147.44" height="131.114" viewBox="0 0 147.44 131.114"><defs><style>.a{fill:#fff;}.b{fill:#54596e;}.c{fill:#55a6ff;}.d{fill:#fff35f;}.e{fill:#d8d8d8;}.f{fill:#ff6f64;}</style></defs><g transform="translate(-0.001 0.004)"><path class="a" d="M3.7,26.58l26.36-8.97-.91-4.76,4.94-5.31H51.93l5.73-4.21L67.06,2l5.6,2,5.8-.85,6.38,4.76,2.52,4.94,20.5-2.23L96.88,26.58l.18,72.01-35.33,6.52L24.64,98.59V38.73Z"/><path class="b" d="M24.64,101.59a2,2,0,0,1-2-2V31.3a2,2,0,0,1,4,0V99.59A2,2,0,0,1,24.64,101.59Z"/><path class="c" d="M100.95,112.2l-40.46,8.92L20.04,112.2V98.59l40.45,6.81,40.46-6.81Z"/><path class="b" d="M60.49,123.12a2.1,2.1,0,0,1-.43-.05l-40.45-8.91a2,2,0,0,1-1.57-2V98.59a1.994,1.994,0,0,1,2.33-1.97l40.12,6.75,40.12-6.75a2,2,0,0,1,2.34,2v13.62a2,2,0,0,1-1.57,2l-40.46,8.91a2,2,0,0,1-.43-.03ZM22,110.6l38.45,8.47L99,110.6V101l-38.13,6.42a1.83,1.83,0,0,1-.66,0L22,101Zm79,1.61Z"/><circle class="d" cx="8.57" cy="8.57" r="8.57" transform="translate(51.92 105.11)"/><path class="b" d="M60.49,124.24a10.57,10.57,0,1,1,10.57-10.56A10.57,10.57,0,0,1,60.49,124.24Zm0-17.13a6.57,6.57,0,1,0,6.57,6.57,6.57,6.57,0,0,0-6.57-6.57Z"/><path class="b" d="M24.64,40.73a2,2,0,0,1-.91-.22L1.08,28.81a2,2,0,0,1,.31-3.68l26.29-8.39a7,7,0,0,1-.2-5.26c1.19-3,4.67-4.93,10.36-5.71,4-.52,12-.55,14.92-.54A13.06,13.06,0,0,1,63,0c4.58-.08,7,1,8.33,2h.21a16.43,16.43,0,0,1,7.33-.38,10.71,10.71,0,0,1,6.87,3.8,9,9,0,0,1,2.43,7.1c-.68,2.84-2.79,4.87-6.45,6.2a7.18,7.18,0,0,1-2,5.11c-1.91,2.17-6.87,5.82-18.65,5.82-12.51,0-18.52-4-21-6.4a6,6,0,0,0-2.68-1.54l-2.53-.65L30.69,20,7.21,27.48,25.56,37a2,2,0,0,1-.92,3.77Zm7.21-24.58,4,1,2.53.65a10.11,10.11,0,0,1,4.47,2.54c2,2,7.11,5.28,18.21,5.28,10.58,0,14.46-3.12,15.64-4.46a3.11,3.11,0,0,0,1-2.32A3.57,3.57,0,0,1,80.12,15c3.15-1,3.88-2.32,4.14-3.33A5.65,5.65,0,0,0,82.78,8.1a6.93,6.93,0,0,0-4.73-2.57,12.86,12.86,0,0,0-5.6.36l-.4.1A3.62,3.62,0,0,1,69,5.25C68.58,4.94,67.08,4,63.07,4a9.15,9.15,0,0,0-7.52,4.21,2,2,0,0,1-1.76,1c-.11,0-10.89-.1-15.42.49-5.41.75-6.81,2.33-7.16,3.2a3.9,3.9,0,0,0,.64,3.25Z"/><path class="b" d="M96.63,101.31a2,2,0,0,1-2-2V27.75A22.25,22.25,0,0,0,85,14.53a2,2,0,0,1,2.15-3.37A25.77,25.77,0,0,1,98.56,27.21a1.871,1.871,0,0,1,0,.34V99.31a2,2,0,0,1-2,2Z"/><path class="b" d="M96.59,29.55A2,2,0,0,1,95,26.37l9.69-13.31L87,14.84a2.01,2.01,0,1,1-.4-4l22.1-2.21a2,2,0,0,1,1.82,3.17L98.21,28.73A2,2,0,0,1,96.59,29.55Z"/><ellipse class="b" cx="6.28" cy="4.11" rx="6.28" ry="4.11" transform="translate(54.21 59.78)"/><path class="b" d="M53.09,81.61a7.82,7.82,0,0,1-5.83-2.34c-2.77-2.93-2.62-7.39-2.6-7.89a2,2,0,0,1,4,.2c0,.9.15,3.52,1.51,4.94a3.83,3.83,0,0,0,2.92,1.09c4.93,0,5.39-6,5.41-6.26a2,2,0,0,1,4,.27C62.26,75.08,60,81.61,53.09,81.61Z"/><path class="b" d="M66.93,81.61a7.82,7.82,0,0,1-5.83-2.34c-2.77-2.93-2.63-7.39-2.6-7.89a2,2,0,0,1,4,.2c0,.9.15,3.52,1.51,4.94a3.83,3.83,0,0,0,2.92,1.09c4.93,0,5.39-6,5.4-6.26a2,2,0,0,1,4,.27C76.09,75.08,73.83,81.61,66.93,81.61Z"/><circle class="e" cx="6.96" cy="6.96" r="6.96" transform="translate(38.65 40.15)"/><circle class="b" cx="2.9" cy="2.9" r="2.9" transform="translate(42.71 40.15)"/><circle class="e" cx="6.96" cy="6.96" r="6.96" transform="translate(68.6 40.15)"/><circle class="b" cx="2.9" cy="2.9" r="2.9" transform="translate(72.66 40.15)"/><path class="f" d="M54.61,130.19a9.17,9.17,0,0,1-2.32-.3,9.53,9.53,0,0,1-4.51-2.75,13.26,13.26,0,0,1-2.91-5.31A23.18,23.18,0,0,1,44.15,111a19.37,19.37,0,0,1,4.67-9.64A21.48,21.48,0,0,1,59,95.21a28,28,0,0,1,3.59-.81,20.908,20.908,0,0,1,3.32-.29h.37a2.34,2.34,0,0,1,2.31,1.8,3.67,3.67,0,0,1-.2,2.57,3.07,3.07,0,0,1-2,1.82,2.52,2.52,0,0,1-.66.14l-1,.07a2.36,2.36,0,0,1,1.65,1.67,3.68,3.68,0,0,1,.14,1c.08,2.37.28,5,.6,7.8a36.879,36.879,0,0,0,1.08,6.18,4.32,4.32,0,0,0,1.05,2.06.82.82,0,0,0,.57.21,1.48,1.48,0,0,0,.44-.07,2.63,2.63,0,0,0,1.36-1,17.47,17.47,0,0,0,1.63-3.09,2.24,2.24,0,0,1,1.41-1.32,2,2,0,0,1,.54-.08,1.91,1.91,0,0,1,1.24.48,3.28,3.28,0,0,1,.9,1.52,4.35,4.35,0,0,1,0,3,16.94,16.94,0,0,1-2.52,4.34,8.22,8.22,0,0,1-4.1,2.58,7.9,7.9,0,0,1-2.29.36,6,6,0,0,1-2.75-.64,6.65,6.65,0,0,1-2.18-1.73,8.76,8.76,0,0,1-6,6A9.87,9.87,0,0,1,54.61,130.19ZM61.49,101c-.49.11-1,.24-1.51.39a12.35,12.35,0,0,0-6.29,4A12.48,12.48,0,0,0,51,111.83a18.63,18.63,0,0,0,.71,7.55,7.22,7.22,0,0,0,2.17,3.67,2.73,2.73,0,0,0,2.6.52,4.1,4.1,0,0,0,2.55-2.31,15.84,15.84,0,0,0,1.1-6,85.738,85.738,0,0,0-.58-11.1,2.89,2.89,0,0,1,.71-2.35,3.9,3.9,0,0,1,1.23-.81Z"/><path class="a" d="M65.86,95.11h.37a1.33,1.33,0,0,1,1.35,1.09,2.65,2.65,0,0,1-.16,1.88,2.09,2.09,0,0,1-1.33,1.27,2.691,2.691,0,0,1-.42.09c-1.27.08-2.35.19-3.24.32a19.458,19.458,0,0,0-2.74.62,13.34,13.34,0,0,0-6.79,4.37,13.52,13.52,0,0,0-2.88,7,19.25,19.25,0,0,0,.76,8,8,8,0,0,0,2.52,4.17,3.78,3.78,0,0,0,2.36.86,4.13,4.13,0,0,0,1.13-.17A5.08,5.08,0,0,0,60,121.7a16.74,16.74,0,0,0,1.2-6.45A85.7,85.7,0,0,0,60.57,104a1.86,1.86,0,0,1,.43-1.55,3.51,3.51,0,0,1,1.54-.85,5,5,0,0,1,1.36-.23,1.46,1.46,0,0,1,1.56,1.08,3,3,0,0,1,.11.72q.11,3.6.6,7.86a38.74,38.74,0,0,0,1.11,6.36A5.34,5.34,0,0,0,68.65,120a1.86,1.86,0,0,0,1.21.44,2.44,2.44,0,0,0,.73-.11,3.58,3.58,0,0,0,1.87-1.38,16.91,16.91,0,0,0,1.75-3.28,1.22,1.22,0,0,1,.78-.76.73.73,0,0,1,.25,0,.85.85,0,0,1,.58.24,2.19,2.19,0,0,1,.6,1,3.37,3.37,0,0,1,0,2.33,16.15,16.15,0,0,1-2.36,4.09,7.38,7.38,0,0,1-3.63,2.27,7,7,0,0,1-2,.31,5.09,5.09,0,0,1-2.31-.53,6.86,6.86,0,0,1-3-3.37q-.93,6.09-5.88,7.59a8.91,8.91,0,0,1-2.57.39,8.11,8.11,0,0,1-6.1-2.74,12.2,12.2,0,0,1-2.68-4.91,22.15,22.15,0,0,1-.7-10.35A18.36,18.36,0,0,1,49.57,102a20.41,20.41,0,0,1,9.67-5.87,28.072,28.072,0,0,1,3.46-.79,20,20,0,0,1,3.16-.27m0-2a21.63,21.63,0,0,0-3.48.3,30.509,30.509,0,0,0-3.72.84,22.55,22.55,0,0,0-10.59,6.47,20.35,20.35,0,0,0-4.91,10.13,24.33,24.33,0,0,0,.75,11.27,14.4,14.4,0,0,0,3.14,5.7,10.44,10.44,0,0,0,5,3,10.18,10.18,0,0,0,2.57.33,11.14,11.14,0,0,0,3.15-.47,9.69,9.69,0,0,0,6.09-5.23,7.41,7.41,0,0,0,1.37.88,7.16,7.16,0,0,0,3.2.74,8.75,8.75,0,0,0,2.57-.4,9.24,9.24,0,0,0,4.59-2.9,18,18,0,0,0,2.67-4.59,5.34,5.34,0,0,0,.09-3.69,4.23,4.23,0,0,0-1.21-2,2.82,2.82,0,0,0-1.89-.73,2.92,2.92,0,0,0-.83.12,3.25,3.25,0,0,0-2,1.88,15.55,15.55,0,0,1-1.52,2.89,1.59,1.59,0,0,1-.85.65h-.1a4.13,4.13,0,0,1-.71-1.56,37.17,37.17,0,0,1-1-6c-.31-2.79-.51-5.38-.58-7.71a5.69,5.69,0,0,0-.19-1.23,4.05,4.05,0,0,0-.33-.76,4.12,4.12,0,0,0,2.21-2.25,4.74,4.74,0,0,0,.24-3.26,3.32,3.32,0,0,0-3.27-2.51h-.37ZM55.66,122.7a1.78,1.78,0,0,1-1.15-.45,6.09,6.09,0,0,1-1.82-3.16A17.33,17.33,0,0,1,52,112a11.43,11.43,0,0,1,2.46-6,10.47,10.47,0,0,1,4.16-3.1,4.91,4.91,0,0,0-.06,1.3,84.509,84.509,0,0,1,.58,11,14.41,14.41,0,0,1-1,5.65,3.1,3.1,0,0,1-1.94,1.78,1.91,1.91,0,0,1-.55.09Z"/><path class="f" d="M78.45,123.15a5.56,5.56,0,0,1-3-.9,7.26,7.26,0,0,1-3-4.22,12.8,12.8,0,0,1-.41-5.91,11.86,11.86,0,0,1,2.24-5.26A10.7,10.7,0,0,1,78,103.73a45.88,45.88,0,0,1-.82-11.65c.31-4,1.69-6.34,4.11-7.07a4,4,0,0,1,1.17-.18,4.24,4.24,0,0,1,2.58.93A8,8,0,0,1,87.58,90a28.9,28.9,0,0,1,.88,9.93,71,71,0,0,1-1.8,12,6.14,6.14,0,0,0,1.12,2c.2.19.34.26.41.26a2.07,2.07,0,0,0,1.13-1A26,26,0,0,0,91,109.87a2.28,2.28,0,0,1,1.41-1.33,2.09,2.09,0,0,1,.55-.08,1.85,1.85,0,0,1,1.23.49,3.06,3.06,0,0,1,.9,1.52,4.26,4.26,0,0,1,0,3,18.52,18.52,0,0,1-2.32,4.08,7,7,0,0,1-3.48,2.58,5,5,0,0,1-1.47.22,5.3,5.3,0,0,1-3.39-1.31,8.39,8.39,0,0,1-1.4,2.17,6.21,6.21,0,0,1-2.78,1.65,5.89,5.89,0,0,1-1.8.29Zm.93-13.34a5.6,5.6,0,0,0-.89,1.87,7,7,0,0,0,.05,4.13c.15.51.48,1.37.95,1.37a1.11,1.11,0,0,0,.28-.05,1.21,1.21,0,0,0,.6-.53,8,8,0,0,0,.8-1.83,26.242,26.242,0,0,1-1.48-3.85C79.61,110.64,79.5,110.27,79.38,109.81Zm3.21-18.26v.59a44.351,44.351,0,0,0,.71,6.26c.09.54.19,1.09.3,1.64a25,25,0,0,0-.77-7.78,7.272,7.272,0,0,0-.24-.71Z"/><path class="a" d="M82.44,85.83a3.24,3.24,0,0,1,2,.73,7.17,7.17,0,0,1,2.21,3.76,28.15,28.15,0,0,1,.83,9.58A69.221,69.221,0,0,1,85.61,112a8,8,0,0,0,1.47,2.67,1.59,1.59,0,0,0,1.11.55,1,1,0,0,0,.33,0,3.09,3.09,0,0,0,1.65-1.4,26.83,26.83,0,0,0,1.74-3.53,1.27,1.27,0,0,1,.78-.76,1.17,1.17,0,0,1,.26,0,.85.85,0,0,1,.57.24,2.1,2.1,0,0,1,.6,1.06,3.31,3.31,0,0,1,0,2.33A17.4,17.4,0,0,1,91.91,117a5.9,5.9,0,0,1-3,2.23,4.191,4.191,0,0,1-1.19.18,5,5,0,0,1-3.73-2,10.4,10.4,0,0,1-1.78,3.2A5.25,5.25,0,0,1,79.86,122a5,5,0,0,1-1.45.22,4.65,4.65,0,0,1-2.48-.74,6.32,6.32,0,0,1-2.59-3.67,11.81,11.81,0,0,1-.37-5.46,10.89,10.89,0,0,1,2-4.82,9.77,9.77,0,0,1,4-3.16,45.24,45.24,0,0,1-1-12.15q.41-5.28,3.4-6.19a3,3,0,0,1,.88-.13M84,106.61q1.31-9.56-.23-14.64A7.791,7.791,0,0,0,83,90c-.26-.38-.48-.57-.67-.57H82.2c-.44.13-.64,1-.61,2.71a46.349,46.349,0,0,0,.72,6.41q.68,3.89,1.71,8m-4.53,11.57a2,2,0,0,0,.57-.09,2.16,2.16,0,0,0,1.14-.93,10.371,10.371,0,0,0,1-2.47,24.72,24.72,0,0,1-1.6-4.06c-.17-.55-.41-1.45-.74-2.7a6,6,0,0,0-2.38,3.47,8.1,8.1,0,0,0,0,4.7c.42,1.39,1.06,2.08,1.91,2.08m3-34.35a4.88,4.88,0,0,0-1.46.22c-2.86.86-4.48,3.54-4.82,8a45.92,45.92,0,0,0,.71,11.2,11.71,11.71,0,0,0-3.41,3.06A12.88,12.88,0,0,0,71,112a13.82,13.82,0,0,0,.43,6.37,8.22,8.22,0,0,0,3.44,4.78,6.55,6.55,0,0,0,3.54,1.05,6.86,6.86,0,0,0,2-.31,7.25,7.25,0,0,0,3.22-1.92,8.08,8.08,0,0,0,1-1.39,6,6,0,0,0,3,.84,6.3,6.3,0,0,0,1.76-.26,7.92,7.92,0,0,0,4-2.94,19.05,19.05,0,0,0,2.45-4.3,5.22,5.22,0,0,0,.09-3.69,4.13,4.13,0,0,0-1.21-2,2.85,2.85,0,0,0-1.88-.73,2.72,2.72,0,0,0-.84.13,3.26,3.26,0,0,0-2,1.87,25.339,25.339,0,0,1-1.6,3.26c-.07.11-.14.2-.2.28a8,8,0,0,1-.58-1.14A72.062,72.062,0,0,0,89.46,100a30.15,30.15,0,0,0-.92-10.28A8.94,8.94,0,0,0,85.62,85a5.2,5.2,0,0,0-3.18-1.13Zm-2.81,32.08a1.877,1.877,0,0,0-.14-.39,6.14,6.14,0,0,1-.22-2.71c.26.71.53,1.38.82,2a6.879,6.879,0,0,1-.46,1.09Z"/><path class="f" d="M95.07,118.25a3,3,0,0,1-2.43-1.3,14.63,14.63,0,0,1-2-4.57,30.2,30.2,0,0,1-1.34-9.18,3.72,3.72,0,0,1,.8-2.39,4.69,4.69,0,0,1,2.32-1.38,3.67,3.67,0,0,1,1.08-.19,1.861,1.861,0,0,1,.48.06,1.67,1.67,0,0,1,1.17,1.25,6.23,6.23,0,0,1,.2,1.39,10.57,10.57,0,0,1,1.55-2.69,5.77,5.77,0,0,1,2.77-2A4.44,4.44,0,0,1,101,97a2.58,2.58,0,0,1,1.35.35,3.53,3.53,0,0,1,1.46,2.1.462.462,0,0,0,.07.29,12.2,12.2,0,0,1,.8-1.66,7.25,7.25,0,0,1,3.91-3.56,4.33,4.33,0,0,1,1.24-.2,3,3,0,0,1,2.91,2.43,29.281,29.281,0,0,1,.76,5.28A22.84,22.84,0,0,0,114,106a1.21,1.21,0,0,0,.17.4c.13,0,.4-.23.81-.89a27.81,27.81,0,0,0,1.63-3.37,2.24,2.24,0,0,1,1.41-1.32,1.76,1.76,0,0,1,.55-.09,1.83,1.83,0,0,1,1.23.49,3.1,3.1,0,0,1,.9,1.52,4.26,4.26,0,0,1,0,3,16.871,16.871,0,0,1-2.41,4.18,8.06,8.06,0,0,1-4,2.67,5.941,5.941,0,0,1-1.65.26,4,4,0,0,1-2.12-.58,5.53,5.53,0,0,1-2.22-3.23,23.22,23.22,0,0,1-.59-3.78c-.05-.51-.1-1-.14-1.31a19,19,0,0,0-.53,2.85,24.558,24.558,0,0,0-.13,4.22,6.28,6.28,0,0,1-.3,3,3.58,3.58,0,0,1-3,1.7,3,3,0,0,1-2.14-1,6.94,6.94,0,0,1-1.6-2.87,31.8,31.8,0,0,1-.83-4c-.09-.5-.16-.92-.23-1.27a19.131,19.131,0,0,0-.43,3,30,30,0,0,0,0,4,6.32,6.32,0,0,1-.3,2.93,3,3,0,0,1-2,1.58,3.3,3.3,0,0,1-1.01.16Z"/><path class="a" d="M109.79,95.34c1,0,1.61.57,2,1.72a29.46,29.46,0,0,1,.71,5.07,25.65,25.65,0,0,0,.54,4.15c.23.76.59,1.13,1.07,1.13a1.4,1.4,0,0,0,.34,0,2.83,2.83,0,0,0,1.38-1.34,28.323,28.323,0,0,0,1.7-3.5,1.29,1.29,0,0,1,.78-.76,1.269,1.269,0,0,1,.26,0,.85.85,0,0,1,.57.24,2.15,2.15,0,0,1,.6,1.06,3.31,3.31,0,0,1,0,2.33,15.91,15.91,0,0,1-2.28,4,7,7,0,0,1-3.51,2.34,4.65,4.65,0,0,1-1.37.22,3.05,3.05,0,0,1-1.59-.43,4.54,4.54,0,0,1-1.78-2.67,23.111,23.111,0,0,1-.56-3.59,18.23,18.23,0,0,0-.46-3.12c-.09-.31-.23-.46-.42-.46h-.12c-.3.09-.61.6-.93,1.54a18.17,18.17,0,0,0-.73,3.54,26.611,26.611,0,0,0-.13,4.39,5.53,5.53,0,0,1-.21,2.47,2.14,2.14,0,0,1-1.43,1,1.9,1.9,0,0,1-.61.1,1.94,1.94,0,0,1-1.42-.67,5.84,5.84,0,0,1-1.37-2.45,31.788,31.788,0,0,1-.8-3.89,28.86,28.86,0,0,0-.59-3c-.09-.3-.24-.46-.42-.46h-.13c-.34.11-.65.65-.93,1.64a18,18,0,0,0-.57,3.62,30.25,30.25,0,0,0,0,4.14,5.61,5.61,0,0,1-.22,2.45,2.561,2.561,0,0,1-2.01,1.1,2.07,2.07,0,0,1-1.64-.92,13.82,13.82,0,0,1-1.86-4.24,28.85,28.85,0,0,1-1.3-8.87,2.76,2.76,0,0,1,.57-1.77,3.72,3.72,0,0,1,1.84-1.06,2.75,2.75,0,0,1,.79-.15.67.67,0,0,1,.69.6,13.08,13.08,0,0,1,.24,2.63c0,1,.11,1.84.17,2.55a26.249,26.249,0,0,0,.42,2.63,19.22,19.22,0,0,1,.85-5.2,10.82,10.82,0,0,1,1.81-3.57,4.92,4.92,0,0,1,2.28-1.69,3.86,3.86,0,0,1,1-.17,1.59,1.59,0,0,1,.84.21,2.53,2.53,0,0,1,1,1.53,23.42,23.42,0,0,1,.55,4.19c.07.88.13,1.53.19,2a17.74,17.74,0,0,1,2-7.31,6.3,6.3,0,0,1,3.34-3.11,3.1,3.1,0,0,1,1-.16m0-2a5.341,5.341,0,0,0-1.53.24,8.1,8.1,0,0,0-4.39,3.87,3.85,3.85,0,0,0-1-.94A3.58,3.58,0,0,0,101,96a5.39,5.39,0,0,0-1.61.26,6.82,6.82,0,0,0-3.25,2.33c-.17.21-.34.44-.5.67a2.53,2.53,0,0,0-1.38-.94,2.661,2.661,0,0,0-.75-.1,5,5,0,0,0-1.37.23,5.71,5.71,0,0,0-2.8,1.7,4.68,4.68,0,0,0-1,3,31.52,31.52,0,0,0,1.38,9.47,15.15,15.15,0,0,0,2.21,4.89,4,4,0,0,0,3.21,1.69,4.14,4.14,0,0,0,1.19-.18,4,4,0,0,0,2.64-2.14,7.11,7.11,0,0,0,.39-3.39v-.3a7.32,7.32,0,0,0,1.44,2.18,3.94,3.94,0,0,0,2.85,1.26,4.14,4.14,0,0,0,1.19-.18,4.09,4.09,0,0,0,2.66-2.09,7.15,7.15,0,0,0,.4-3.46,1.482,1.482,0,0,1,0-.21,5.71,5.71,0,0,0,2.09,2.39,5,5,0,0,0,2.64.73,6.59,6.59,0,0,0,1.95-.31,8.9,8.9,0,0,0,4.49-3,18.1,18.1,0,0,0,2.56-4.42,5.28,5.28,0,0,0,.08-3.69,4.13,4.13,0,0,0-1.21-2,2.83,2.83,0,0,0-1.88-.73,3.061,3.061,0,0,0-.84.13,3.26,3.26,0,0,0-2,1.87q-.57,1.35-1,2.25c-.06-.51-.12-1.16-.19-2a29.45,29.45,0,0,0-.79-5.5,4,4,0,0,0-3.87-3.14ZM115,105.86Z"/><path class="f" d="M121.59,110.11a4.32,4.32,0,0,1-2.91-1.08,8.92,8.92,0,0,1-2.59-4.35,28.726,28.726,0,0,1-.85-4.25,39.791,39.791,0,0,1-.36-5,4,4,0,0,1,.54-2.34,3.68,3.68,0,0,1,2.07-1.3,4.29,4.29,0,0,1,1.24-.21,2.06,2.06,0,0,1,2.11,1.51,25.431,25.431,0,0,1,.59,4.39,30.4,30.4,0,0,0,.69,5.17,2.71,2.71,0,0,0,.52,1.1h0c.08,0,.34-.11.79-.87a31.529,31.529,0,0,0,1.6-3.35,2.21,2.21,0,0,1,1.41-1.33,1.68,1.68,0,0,1,.54-.08,1.86,1.86,0,0,1,1.24.48,3.2,3.2,0,0,1,.9,1.52,4.26,4.26,0,0,1-.05,3c-1.56,3.77-3.43,6-5.73,6.64a6.19,6.19,0,0,1-1.75.35Zm-5.14-18.57a3.43,3.43,0,0,1-1.52-.33,3.51,3.51,0,0,1-1.8-2.26,3.67,3.67,0,0,1,.45-3.13,4.65,4.65,0,0,1,2.66-1.94,5.48,5.48,0,0,1,1.5-.23,3.82,3.82,0,0,1,1.4.25,3.19,3.19,0,0,1,1.92,2.16,3.88,3.88,0,0,1-.34,3.26,4.51,4.51,0,0,1-2.69,2,5.21,5.21,0,0,1-1.58.22Z"/><path class="a" d="M117.74,84.65a3,3,0,0,1,1,.18,2.21,2.21,0,0,1,1.32,1.52,2.91,2.91,0,0,1-.23,2.45,3.55,3.55,0,0,1-2.13,1.53,4.55,4.55,0,0,1-1.29.21,2.35,2.35,0,0,1-1.08-.23,2.57,2.57,0,0,1-1.29-1.65,2.66,2.66,0,0,1,.34-2.3,3.64,3.64,0,0,1,2.11-1.52,4.16,4.16,0,0,1,1.21-.19m1,8a1.07,1.07,0,0,1,1.15.8,26.85,26.85,0,0,1,.55,4.19,31.56,31.56,0,0,0,.73,5.37,3.86,3.86,0,0,0,.75,1.5,1,1,0,0,0,.73.33,1.24,1.24,0,0,0,.37-.06,2.72,2.72,0,0,0,1.28-1.33A32.393,32.393,0,0,0,126,100a1.28,1.28,0,0,1,.78-.77,1.18,1.18,0,0,1,.25,0,.85.85,0,0,1,.58.24,2.2,2.2,0,0,1,.6,1.06,3.25,3.25,0,0,1,0,2.33c-1.42,3.46-3.13,5.49-5.1,6.08a4.89,4.89,0,0,1-1.46.24,3.4,3.4,0,0,1-2.27-.84,8.06,8.06,0,0,1-2.28-3.88,26.869,26.869,0,0,1-.8-4.09,38,38,0,0,1-.36-4.83,3.06,3.06,0,0,1,.37-1.76,2.77,2.77,0,0,1,1.52-.92,3.42,3.42,0,0,1,1-.16m-1-10h0a6.11,6.11,0,0,0-1.79.28,5.55,5.55,0,0,0-3.21,2.35,4.64,4.64,0,0,0-.57,4,4.49,4.49,0,0,0,2.32,2.87c.12,0,.23.11.35.15l-.24.31a4.9,4.9,0,0,0-.72,2.94,41.439,41.439,0,0,0,.37,5,28.709,28.709,0,0,0,.88,4.4,10,10,0,0,0,2.9,4.84,5.35,5.35,0,0,0,3.56,1.31,7.15,7.15,0,0,0,2-.32c2.6-.79,4.68-3.15,6.36-7.22a5.27,5.27,0,0,0,.09-3.69,4.26,4.26,0,0,0-1.2-2,2.89,2.89,0,0,0-1.9-.74,3.41,3.41,0,0,0-.83.13,3.22,3.22,0,0,0-2,1.88c-.46,1.08-.86,1.94-1.2,2.6-.13-.71-.31-2-.49-4.31a25.739,25.739,0,0,0-.63-4.61,3,3,0,0,0-1.31-1.74,5,5,0,0,0,1.09-1.28,4.89,4.89,0,0,0,.44-4.06A4.15,4.15,0,0,0,119.5,83a4.7,4.7,0,0,0-1.76-.32Z"/><path class="f" d="M129.1,108a3,3,0,0,1-2.42-1.3,14.3,14.3,0,0,1-2-4.56,30.83,30.83,0,0,1-1.34-9.18,3.7,3.7,0,0,1,.81-2.4,4.61,4.61,0,0,1,2.31-1.38,4,4,0,0,1,1.08-.19A1.93,1.93,0,0,1,128,89a1.66,1.66,0,0,1,1.16,1.24,7.452,7.452,0,0,1,.23,1.72,10.49,10.49,0,0,1,2-3.32,6.25,6.25,0,0,1,2.69-1.83,4.45,4.45,0,0,1,1.25-.2,3,3,0,0,1,2.91,2.43,28.921,28.921,0,0,1,.75,5.29,24.07,24.07,0,0,0,.5,3.94,1.561,1.561,0,0,0,.18.4,2.2,2.2,0,0,0,.8-.9,26.538,26.538,0,0,0,1.64-3.36,2.21,2.21,0,0,1,1.41-1.33A1.68,1.68,0,0,1,144,93a1.86,1.86,0,0,1,1.24.48,3.2,3.2,0,0,1,.9,1.52,4.26,4.26,0,0,1,0,3,17.191,17.191,0,0,1-2.41,4.18,8,8,0,0,1-4,2.67,5.83,5.83,0,0,1-1.65.26,4,4,0,0,1-2.12-.58,5.5,5.5,0,0,1-2.21-3.23,22.941,22.941,0,0,1-.6-3.77,9.629,9.629,0,0,0-.13-1.26,21,21,0,0,0-.52,2.79,23.579,23.579,0,0,0-.14,4.22,6.39,6.39,0,0,1-.31,2.92,3,3,0,0,1-2,1.58,2.92,2.92,0,0,1-.95.22Z"/><path class="a" d="M135.3,87.62c1,0,1.61.58,1.95,1.72a27.679,27.679,0,0,1,.71,5.08,24.309,24.309,0,0,0,.55,4.15c.23.75.58,1.13,1.07,1.13a1.06,1.06,0,0,0,.34-.06,2.78,2.78,0,0,0,1.38-1.34,29.549,29.549,0,0,0,1.7-3.49,1.24,1.24,0,0,1,.78-.76.77.77,0,0,1,.25,0,.89.89,0,0,1,.58.23,2.2,2.2,0,0,1,.6,1.06,3.25,3.25,0,0,1,0,2.33,15.89,15.89,0,0,1-2.27,4,6.88,6.88,0,0,1-3.52,2.34,4.58,4.58,0,0,1-1.36.22,3,3,0,0,1-1.59-.43,4.54,4.54,0,0,1-1.78-2.67,21.939,21.939,0,0,1-.56-3.58,18.221,18.221,0,0,0-.46-3.13q-.14-.45-.42-.45a.32.32,0,0,0-.13,0c-.29.08-.6.6-.9,1.53a18.941,18.941,0,0,0-.73,3.54,24.651,24.651,0,0,0-.15,4.4,5.56,5.56,0,0,1-.22,2.44,2.06,2.06,0,0,1-1.39,1,2.32,2.32,0,0,1-.62.09,2.07,2.07,0,0,1-1.64-.91,13.93,13.93,0,0,1-1.86-4.24,29.53,29.53,0,0,1-1.3-8.88,2.71,2.71,0,0,1,.58-1.77,3.71,3.71,0,0,1,1.83-1.06,2.809,2.809,0,0,1,.79-.15.8.8,0,0,1,.23,0,.76.76,0,0,1,.47.57,13.58,13.58,0,0,1,.23,2.63,24.615,24.615,0,0,0,.18,2.57,23.478,23.478,0,0,0,.43,2.65,20.6,20.6,0,0,1,1.08-5.58,10.42,10.42,0,0,1,2-3.48,5.26,5.26,0,0,1,2.25-1.55,3.56,3.56,0,0,1,1-.16m0-2a5.43,5.43,0,0,0-1.54.25A7.17,7.17,0,0,0,130.63,88a9.941,9.941,0,0,0-.91,1.16A2.54,2.54,0,0,0,128.25,88a3.08,3.08,0,0,0-.75-.1,4.71,4.71,0,0,0-1.37.24,5.62,5.62,0,0,0-2.79,1.69,4.68,4.68,0,0,0-1,3,31.54,31.54,0,0,0,1.38,9.48,15.36,15.36,0,0,0,2.21,4.89,4,4,0,0,0,3.17,1.8,4.21,4.21,0,0,0,1.2-.18,4,4,0,0,0,2.63-2.13,7.27,7.27,0,0,0,.4-3.4v-.22a5.8,5.8,0,0,0,2.1,2.39,4.88,4.88,0,0,0,2.64.73,6.79,6.79,0,0,0,1.94-.3,9,9,0,0,0,4.5-3,18.1,18.1,0,0,0,2.56-4.42,5.33,5.33,0,0,0,.08-3.69,4.26,4.26,0,0,0-1.2-2A2.88,2.88,0,0,0,144,92a3,3,0,0,0-.83.12,3.22,3.22,0,0,0-2,1.88c-.39.89-.73,1.64-1,2.24,0-.51-.12-1.16-.18-2a29.729,29.729,0,0,0-.79-5.5,4,4,0,0,0-3.87-3.14ZM140.56,98.13Z"/></g></svg>